<svg width="32" height="32" viewBox="0 0 32 32" fill="none" xmlns="http://www.w3.org/2000/svg">
<g clip-path="url(#clip0_303_7728)">
<path d="M24.3202 5.60042L16.0006 13.92L7.68077 5.60023C7.10684 5.0263 6.1749 5.0263 5.60078 5.60042C5.02684 6.17436 5.02684 7.10629 5.60078 7.68023L13.9206 16L5.60078 24.3198C5.02684 24.8938 5.02684 25.8257 5.60078 26.3996C6.1749 26.9738 7.10684 26.9738 7.68077 26.3998L16.0006 18.08L24.3202 26.3996C24.8943 26.9738 25.8262 26.9738 26.4002 26.3998C26.9743 25.8257 26.9743 24.8938 26.4002 24.3196L18.0806 16L26.4002 7.68042C26.9743 7.10629 26.9743 6.17436 26.4002 5.60023C25.8262 5.0263 24.8943 5.0263 24.3202 5.60042Z" fill="#AFAFAF"/>
</g>
<defs>
<clipPath id="clip0_303_7728">
<rect width="26" height="26" fill="white" transform="translate(3 3)"/>
</clipPath>
</defs>
</svg>
