<svg width="40" height="40" viewBox="0 0 40 40" fill="none" xmlns="http://www.w3.org/2000/svg">
<g clip-path="url(#clip0_302_6722)">
<path d="M34.9484 5.42687C35.2489 5.02773 35.2971 4.50203 35.0741 4.055C34.8511 3.60789 34.4021 3.33023 33.9025 3.33023H12.5746C12.2907 1.44797 10.6638 0 8.70367 0C6.54406 0 4.78703 1.75695 4.78703 3.91664C4.78703 6.07625 6.54399 7.83328 8.70367 7.83328C9.20844 7.83328 9.6911 7.73711 10.1346 7.56234C10.1346 7.56234 19.0408 19.3909 19.0409 19.3909C19.5149 20.0205 19.7778 20.8055 19.7778 21.5951V32.7572C19.7778 33.0626 19.7461 33.368 19.6833 33.6668C19.3149 35.4179 17.9141 36.7612 16.1666 37.0948C15.9496 37.1295 14.0215 37.4871 13.6216 39.2864C13.5831 39.46 13.6253 39.6418 13.7366 39.7805C13.8479 39.9193 14.0162 40 14.1941 40H23.3076C23.6315 40 23.894 39.7375 23.894 39.4136C23.894 39.0897 23.6314 38.8272 23.3076 38.8272C23.3076 38.8272 15.167 38.8272 15.1671 38.8271C15.5842 38.4178 16.043 38.3223 16.5857 38.2066C19.1149 37.6673 20.9507 35.3755 20.9507 32.7572V21.595C20.9507 21.4234 20.9405 21.2522 20.922 21.082H22.5533C22.5349 21.2522 22.5246 21.4234 22.5246 21.595V32.7571C22.5246 35.3817 24.3701 37.6756 26.9126 38.2115C27.4238 38.3192 27.9206 38.4469 28.3082 38.8272H26.0674C25.7435 38.8272 25.481 39.0897 25.481 39.4136C25.481 39.7375 25.7436 40 26.0674 40H29.2812C29.4591 40 29.6273 39.9193 29.7386 39.7805C29.8499 39.6417 29.8922 39.46 29.8536 39.2864C29.5572 37.953 28.3836 37.3229 27.1543 37.0638C25.1513 36.6416 23.6975 34.8304 23.6975 32.7572V21.595C23.6975 20.8073 23.9606 20.0202 24.4345 19.3909L34.9484 5.42687ZM8.70367 6.66031C7.19078 6.66031 5.95992 5.42953 5.95992 3.91656C5.95992 2.40359 7.19078 1.17281 8.70367 1.17281C10.0152 1.17281 11.1136 2.09812 11.3829 3.33016H9.57274C9.07313 3.33016 8.62422 3.60789 8.40118 4.055C8.17821 4.50203 8.22633 5.02781 8.5268 5.42687L9.38961 6.57281C9.17024 6.62969 8.94055 6.66031 8.70367 6.66031ZM22.8274 19.9091H20.6474C20.5307 19.5941 20.381 19.2933 20.2009 19.0089C20.2003 19.008 20.1998 19.007 20.1991 19.006C19.9445 18.597 19.6395 18.2361 19.3515 17.8535C18.8848 17.2336 11.6206 7.58625 11.3925 7.28242C12.2527 7.29336 13.1112 7.36898 13.9632 7.48508C14.3644 7.53977 14.7643 7.60359 15.1631 7.67422C15.5558 7.74375 15.9409 7.81844 16.3281 7.89805C16.6454 7.96328 16.9552 7.75789 17.0198 7.44062C17.0845 7.12328 16.8797 6.81359 16.5623 6.74891C14.5791 6.34625 12.5474 6.04227 10.5186 6.12242L9.46375 4.72148C9.4218 4.66578 9.43352 4.61305 9.45071 4.57859C9.46789 4.54414 9.50305 4.50305 9.57274 4.50305H33.9025C33.9723 4.50305 34.0074 4.54414 34.0245 4.57859C34.0417 4.61305 34.0534 4.66578 34.0114 4.72148L32.4429 6.80469C31.83 7.20375 31.171 7.52695 30.4818 7.76438C28.8942 8.31141 27.1999 8.45555 25.5306 8.37453C23.4038 8.27133 21.3001 7.82031 19.2391 7.34422C18.9231 7.27125 18.6086 7.46789 18.5356 7.78336C18.4627 8.09891 18.6592 8.41383 18.9748 8.48688C21.0616 8.96914 23.1696 9.41758 25.3133 9.53906C27.1893 9.64539 29.0778 9.48 30.8638 8.8732C30.8735 8.86992 30.8831 8.86656 30.8927 8.8632L23.4974 18.6854C23.2209 19.0523 22.9869 19.4787 22.8274 19.9091Z" fill="#AFAFAF"/>
</g>
<defs>
<clipPath id="clip0_302_6722">
<rect width="40" height="40" fill="white"/>
</clipPath>
</defs>
</svg>
