<svg width="146" height="125" viewBox="0 0 146 125" fill="none" xmlns="http://www.w3.org/2000/svg">
<path d="M144.434 58.7711C143.141 57.0027 112.339 15.4706 72.9998 15.4706C33.6603 15.4706 2.85706 57.0027 1.56572 58.7694C0.341373 60.4471 0.341373 62.7226 1.56572 64.4003C2.85706 66.1687 33.6603 107.701 72.9998 107.701C112.339 107.701 143.141 66.1684 144.434 64.4017C145.66 62.7243 145.66 60.4471 144.434 58.7711ZM72.9998 98.1598C44.022 98.1598 18.9243 70.5941 11.4948 61.5825C18.9147 52.5629 43.9599 25.0116 72.9998 25.0116C101.976 25.0116 127.072 52.5725 134.505 61.589C127.085 70.6082 102.04 98.1598 72.9998 98.1598Z" fill="#AFAFAF" stroke="#AFAFAF" stroke-width="0.5"/>
<path d="M73.0002 32.9618C57.2176 32.9618 44.377 45.8025 44.377 61.5851C44.377 77.3677 57.2176 90.2084 73.0002 90.2084C88.7828 90.2084 101.623 77.3677 101.623 61.5851C101.623 45.8025 88.7828 32.9618 73.0002 32.9618ZM73.0002 80.6671C62.4779 80.6671 53.9182 72.1071 53.9182 61.5851C53.9182 51.0631 62.4782 42.5031 73.0002 42.5031C83.5222 42.5031 92.0822 51.0631 92.0822 61.5851C92.0822 72.1071 83.5225 80.6671 73.0002 80.6671Z" fill="#AFAFAF" stroke="#AFAFAF" stroke-width="0.5"/>
<path d="M127.123 5.49667C126.915 6.29236 25.5819 121.533 23.6599 123.16C22.7285 123.949 22.3375 124.089 21.4414 123.955C19.5434 123.672 18.3129 121.558 18.8607 119.521C18.9712 119.109 23.1206 114.147 28.0809 108.495L41.4474 92.9644C41.6175 92.9644 47.7703 86.1395 47.7703 86.1395L70.8519 59.9636L83.5235 45.5908L87.7382 40.8079L93.5033 34.2757L103.917 22.4451L113.259 11.885C119.356 4.99302 122.871 1.24889 123.379 1.10591C125.692 0.453842 127.797 2.92236 127.123 5.49667Z" fill="#AFAFAF" stroke="#AFAFAF" stroke-width="0.8"/>
</svg>
