<svg width="18" height="18" viewBox="0 0 18 18" fill="none" xmlns="http://www.w3.org/2000/svg">
<path fill-rule="evenodd" clip-rule="evenodd" d="M17.3081 18H10.6132C10.231 18 9.9209 17.6807 9.9209 17.2872C9.9209 16.8937 10.231 16.5744 10.6132 16.5744H17.3081C17.6903 16.5744 18.0004 16.8937 18.0004 17.2872C18.0004 17.6807 17.6903 18 17.3081 18Z" fill="#4C7287"/>
<mask id="mask0_503_6014" style="mask-type:alpha" maskUnits="userSpaceOnUse" x="0" y="0" width="16" height="18">
<path fill-rule="evenodd" clip-rule="evenodd" d="M0 0H15.8586V18H0V0Z" fill="white"/>
</mask>
<g mask="url(#mask0_503_6014)">
<path fill-rule="evenodd" clip-rule="evenodd" d="M10.2554 1.9166L1.56484 13.1075C1.40699 13.3109 1.34884 13.5732 1.40699 13.825L2.03559 16.5669L4.84076 16.5308C5.10752 16.5279 5.35398 16.4053 5.51736 16.1963C8.48682 12.3709 14.1479 5.07761 14.3085 4.86377C14.4599 4.61097 14.519 4.25362 14.4396 3.90958C14.3584 3.55698 14.1452 3.25761 13.8378 3.06658C13.7722 3.02001 12.2169 1.7769 12.1689 1.73793C11.5837 1.25513 10.7298 1.33876 10.2554 1.9166ZM1.48914 18.0001C1.16884 18.0001 0.890078 17.7739 0.815311 17.4517L0.0593287 14.1529C-0.0966676 13.4696 0.0584056 12.7644 0.483934 12.217L9.17911 1.01943C9.1828 1.01563 9.18557 1.01088 9.18926 1.00708C10.1428 -0.166658 11.867 -0.33963 13.0301 0.621217C13.0762 0.658282 14.6205 1.89379 14.6205 1.89379C15.1817 2.23783 15.6202 2.85274 15.7863 3.58074C15.9516 4.30114 15.8316 5.04434 15.4467 5.67255C15.418 5.71912 15.3931 5.75904 6.59825 17.0877C6.17457 17.6313 5.53951 17.9478 4.85737 17.9564L1.49837 18.0001H1.48914Z" fill="#4C7287"/>
</g>
<path fill-rule="evenodd" clip-rule="evenodd" d="M13.129 8.25381C12.9813 8.25381 12.8336 8.20534 12.7072 8.1065L7.67469 4.12625C7.37193 3.88675 7.3147 3.44007 7.54731 3.12644C7.78084 2.81471 8.21468 2.75674 8.51836 2.99624L13.5518 6.97553C13.8545 7.21503 13.9118 7.66266 13.6782 7.97534C13.5426 8.15782 13.3367 8.25381 13.129 8.25381Z" fill="#4C7287"/>
</svg>
