<svg width="41" height="41" viewBox="0 0 41 41" fill="none" xmlns="http://www.w3.org/2000/svg">
<path d="M21 30.5C20.701 30.5 20.4128 30.3957 20.1882 30.2061C19.3398 29.4914 18.5219 28.8198 17.8003 28.2274L17.7966 28.2243C15.6809 26.4873 13.854 24.9873 12.5828 23.5096C11.1619 21.8576 10.5 20.2914 10.5 18.5803C10.5 16.9179 11.0917 15.3842 12.1659 14.2615C13.253 13.1256 14.7446 12.5 16.3665 12.5C17.5787 12.5 18.6889 12.8692 19.666 13.5973C20.1592 13.9649 20.6062 14.4147 21 14.9393C21.394 14.4147 21.8408 13.9649 22.3341 13.5973C23.3113 12.8692 24.4214 12.5 25.6336 12.5C27.2554 12.5 28.7471 13.1256 29.8342 14.2615C30.9085 15.3842 31.5 16.9179 31.5 18.5803C31.5 20.2914 30.8383 21.8576 29.4173 23.5094C28.1462 24.9873 26.3194 26.4872 24.204 28.224C23.4811 28.8173 22.6619 29.49 21.8117 30.2064C21.5872 30.3957 21.2988 30.5 21 30.5ZM16.3665 13.6852C15.0923 13.6852 13.9218 14.1751 13.0702 15.0648C12.206 15.968 11.73 17.2164 11.73 18.5803C11.73 20.0194 12.2851 21.3064 13.5299 22.7534C14.7329 24.152 16.5224 25.6212 18.5943 27.3224L18.5982 27.3255C19.3225 27.9202 20.1436 28.5944 20.9982 29.3144C21.858 28.5931 22.6804 27.9177 23.4061 27.3221C25.4779 25.6209 27.2672 24.152 28.4703 22.7534C29.7149 21.3064 30.27 20.0194 30.27 18.5803C30.27 17.2164 29.794 15.968 28.9298 15.0648C28.0784 14.1751 26.9077 13.6852 25.6336 13.6852C24.7002 13.6852 23.8432 13.971 23.0865 14.5347C22.4122 15.0373 21.9424 15.6727 21.667 16.1172C21.5254 16.3458 21.2761 16.4823 21 16.4823C20.7239 16.4823 20.4746 16.3458 20.333 16.1172C20.0578 15.6727 19.588 15.0373 18.9135 14.5347C18.1568 13.971 17.2998 13.6852 16.3665 13.6852Z" fill="#FAFAFA" stroke="#FAFAFA" stroke-width="0.2"/>
<circle cx="21" cy="21" r="17.35" stroke="#FAFAFA" stroke-width="1.3"/>
</svg>
