<svg width="40" height="40" viewBox="0 0 40 40" fill="none" xmlns="http://www.w3.org/2000/svg">
<g clip-path="url(#clip0_302_6732)">
<path d="M18.02 18.667H18.0134C17.6454 18.667 17.3501 18.9656 17.3501 19.3336C17.3501 19.7016 17.6521 20.0002 18.02 20.0002C18.388 20.0002 18.6867 19.7016 18.6867 19.3336C18.6867 18.9656 18.388 18.667 18.02 18.667Z" fill="#AFAFAF"/>
<path d="M16.6867 14.667H16.6801C16.3121 14.667 16.0167 14.9656 16.0167 15.3336C16.0167 15.7016 16.3188 16.0002 16.6867 16.0002C17.0554 16.0002 17.3533 15.7016 17.3533 15.3336C17.3533 14.9656 17.0554 14.667 16.6867 14.667Z" fill="#AFAFAF"/>
<path d="M22.02 14.667H22.0134C21.6454 14.667 21.3507 14.9656 21.3507 15.3336C21.3507 15.7016 21.652 16.0002 22.0201 16.0002C22.3881 16.0002 22.6867 15.7016 22.6867 15.3336C22.6867 14.9656 22.388 14.667 22.02 14.667Z" fill="#AFAFAF"/>
<path d="M13.4288 18.3435C13.5535 18.5515 13.7741 18.6669 14.0008 18.6669C14.1174 18.6669 14.2361 18.6362 14.3435 18.5715C14.6588 18.3823 14.7614 17.9729 14.5721 17.6569L11.9782 13.3336H27.3333C27.702 13.3336 28 13.0349 28 12.6669C28 12.299 27.702 12.0003 27.3333 12.0003H11.1775L10.5722 10.9903C10.3829 10.6743 9.9735 10.573 9.65749 10.7623C9.34148 10.9516 9.23953 11.361 9.42882 11.677L13.4288 18.3435Z" fill="#AFAFAF"/>
<path d="M31.3332 8.00032H9.07882L5.26346 0.369066C5.09878 0.0397723 4.69878 -0.0942889 4.36878 0.070397C4.03949 0.235786 3.90621 0.635782 4.07082 0.965076L7.58813 8.00032H3.33348C2.96552 8.00032 2.66685 8.29899 2.66685 8.66695C2.66685 13.9109 5.52346 17.3069 9.94881 17.3335C10.0901 17.4535 10.3395 17.9228 10.5235 18.2708C11.3501 19.8295 12.7101 22.3801 16.6668 22.6408V38.6667H11.3335C10.9655 38.6667 10.6669 38.9653 10.6669 39.3333C10.6669 39.7013 10.9655 39.9999 11.3335 39.9999H23.3334C23.702 39.9999 24 39.7013 24 39.3333C24 38.9653 23.702 38.6667 23.3334 38.6667H18.0001V22.6409C21.9567 22.3802 23.3167 19.8296 24.1434 18.2709C24.3281 17.923 24.5767 17.4536 24.7187 17.3336C29.1439 17.3069 31.9999 13.911 31.9999 8.66703C31.9999 8.29899 31.7019 8.00032 31.3332 8.00032ZM24.6666 16.0002C23.8387 16.0002 23.4346 16.7629 22.9653 17.6462C22.1407 19.2022 21.01 21.3335 17.3334 21.3335C13.6567 21.3335 12.5268 19.2022 11.7014 17.6462C11.2327 16.7629 10.828 16.0002 10.0001 16.0002C7.61875 16.0002 6.06611 14.9003 5.13675 13.3336H8.00008C8.36804 13.3336 8.66671 13.035 8.66671 12.667C8.66671 12.299 8.36804 12.0004 8.00008 12.0004H4.52745C4.23613 11.1564 4.07082 10.247 4.01949 9.33374H30.6479C30.4586 12.671 28.8139 16.0002 24.6666 16.0002Z" fill="#AFAFAF"/>
<path d="M35.5852 4.43849C35.5805 4.4345 35.5792 4.42849 35.5752 4.4245C35.5712 4.41981 35.5652 4.41849 35.5612 4.4145C34.4752 3.33522 32.9813 2.66718 31.3333 2.66718C29.7567 2.66718 28.2713 3.30787 27.168 4.37317C27.1427 4.39185 27.1133 4.40185 27.0907 4.4245C27.0707 4.4445 27.0627 4.47052 27.046 4.49184C26.59 4.95786 26.1973 5.49113 25.91 6.09581C25.752 6.42847 25.894 6.82651 26.2266 6.98448C26.558 7.14377 26.958 7.00112 27.1146 6.66784C27.2493 6.38519 27.4193 6.12652 27.6039 5.8805L28.9765 7.25315C29.1065 7.38314 29.2772 7.44846 29.4479 7.44846C29.6186 7.44846 29.7892 7.38314 29.9192 7.25315C30.1799 6.99252 30.1799 6.5705 29.9192 6.3105L28.5485 4.94051C29.3425 4.34849 30.3125 4.00052 31.3332 4.00052C32.3798 4.00052 33.3431 4.35052 34.1224 4.9345L32.7471 6.3105C32.4871 6.5705 32.4871 6.99315 32.7471 7.25315C32.8777 7.38314 33.0478 7.44846 33.2185 7.44846C33.3892 7.44846 33.5598 7.38314 33.6898 7.25315L35.0651 5.87714C35.6498 6.65643 35.9998 7.62049 35.9998 8.66712C35.9998 9.70445 35.6544 10.6724 35.0677 11.4584L33.6898 10.0811C33.4298 9.82039 33.0077 9.82039 32.7471 10.0811C32.4871 10.3418 32.4871 10.7637 32.7471 11.0237L34.1198 12.3958C33.6398 12.755 33.0938 13.0364 32.4845 13.1911C32.1278 13.2811 31.9111 13.6437 32.0018 14.001C32.0785 14.3031 32.3505 14.5037 32.6478 14.5037C32.7025 14.5037 32.7571 14.4971 32.8125 14.4831C33.8852 14.2104 34.8252 13.6557 35.5678 12.9151C35.5705 12.9125 35.5738 12.9118 35.5758 12.9091C35.5784 12.9064 35.5791 12.9031 35.5818 12.9004C36.6731 11.8044 37.3331 10.3005 37.3331 8.66712C37.3332 7.01846 36.6645 5.52449 35.5852 4.43849Z" fill="#AFAFAF"/>
</g>
<defs>
<clipPath id="clip0_302_6732">
<rect width="40" height="40" fill="white"/>
</clipPath>
</defs>
</svg>
