<svg width="40" height="40" viewBox="0 0 40 40" fill="none" xmlns="http://www.w3.org/2000/svg">
<g clip-path="url(#clip0_302_6717)">
<path d="M32.6276 2.52638C32.6245 2.52638 32.6213 2.52638 32.6182 2.52638C31.9701 2.53044 31.3329 2.59677 30.7087 2.72239C29.1611 2.63786 27.4321 2.28161 26.2302 0.401845C26.0734 0.155595 25.8054 0.00543828 25.5135 0.00012578C25.2199 -0.00643672 24.9455 0.135985 24.7792 0.377782C23.4643 2.2863 23.4607 4.42864 25.2034 5.89403C24.7926 6.35888 24.4285 6.85848 24.1136 7.38505H21.6804C21.3568 7.38505 21.0945 7.64739 21.0945 7.97098C21.0945 8.29458 21.3568 8.55692 21.6804 8.55692H23.5123C22.8121 10.1738 22.536 11.9662 22.7454 13.7443H18.0286C17.6101 11.714 15.905 10.1484 13.8065 9.9402C13.7057 9.45817 13.5577 8.99591 13.3652 8.557H18.9461C19.2697 8.557 19.532 8.29466 19.532 7.97106C19.532 7.64747 19.2697 7.38513 18.9461 7.38513H12.7076C12.0861 6.49677 11.2479 5.74645 10.2227 5.177C9.9399 5.01989 9.5831 5.12177 9.42599 5.40473C9.26888 5.68763 9.37083 6.04434 9.65373 6.20153C10.2439 6.52934 10.7601 6.92778 11.1943 7.3852H7.4831C6.60412 7.3852 5.88904 8.10028 5.88904 8.97927V28.0686C5.88904 28.3922 6.1513 28.6546 6.47498 28.6546C6.79865 28.6546 7.06091 28.3922 7.06091 28.0686V14.9163H8.53599C8.64209 17.4689 10.751 19.513 13.3291 19.513C15.9072 19.513 18.0161 17.4689 18.1222 14.9163H22.9557C23.582 17.5048 25.2604 19.8631 27.7707 21.2743C28.4201 21.6392 29.2461 21.2748 29.3994 20.5353L29.8753 18.24C29.9742 17.7633 29.7858 17.2683 29.3957 16.9793C28.6747 16.445 28.0907 15.7326 27.7018 14.9164H32.2147V34.7935H7.06091V30.8031C7.06091 30.4795 6.79865 30.2172 6.47498 30.2172C6.1513 30.2172 5.88904 30.4795 5.88904 30.8031V38.4061C5.88904 39.285 6.60412 40.0001 7.4831 40.0001H31.7925C32.6715 40.0001 33.3865 39.285 33.3865 38.4061V8.97919C33.3865 8.1002 32.6715 7.38513 31.7925 7.38513H30.724C31.2951 7.16638 31.8943 7.04598 32.5146 7.02723C33.2364 7.00544 33.8431 6.44325 33.9257 5.71966C33.9861 5.19161 34.0458 4.66599 34.1015 4.16716C34.1995 3.29216 33.5125 2.52638 32.6276 2.52638ZM16.8226 13.7443H9.83568C10.2611 12.2145 11.6657 11.0882 13.3292 11.0882C14.9927 11.0882 16.3972 12.2145 16.8226 13.7443ZM7.06091 8.97919C7.06091 8.74638 7.25037 8.557 7.4831 8.557H12.056C12.3007 8.99723 12.4872 9.47028 12.6113 9.9702C10.624 10.2697 9.03208 11.7922 8.62958 13.7443H7.06091V8.97919ZM13.3291 18.341C11.3972 18.341 9.81357 16.8223 9.70865 14.9161H16.9497C16.8447 16.8223 15.2611 18.341 13.3291 18.341ZM25.5074 1.41802C26.346 2.55286 27.3584 3.16739 28.3774 3.50341C27.535 3.90638 26.7533 4.41786 26.0337 5.0595C24.8118 4.08708 24.7436 2.75184 25.5074 1.41802ZM24.8043 8.55692H27.305C26.2072 10.0302 25.7585 11.9073 26.0993 13.7443H23.9267C23.6867 11.9553 24.0058 10.1433 24.8043 8.55692ZM26.6057 15.3402C27.0763 16.3626 27.7998 17.255 28.698 17.9206C28.7226 17.9388 28.7343 17.9708 28.7279 18.002L28.2701 20.21C26.1927 19.0157 24.7635 17.074 24.1659 14.9162H26.4294C26.4836 15.0583 26.5411 15.2 26.6057 15.3402ZM31.7925 38.8281H7.4831C7.25037 38.8281 7.06091 38.6387 7.06091 38.4059V35.9651H32.2147V38.4059C32.2147 38.6387 32.0253 38.8281 31.7925 38.8281ZM32.2147 8.97919V13.7443H27.2961C26.8688 11.8553 27.4665 9.88684 28.8649 8.557H31.7925C32.0253 8.55692 32.2147 8.74638 32.2147 8.97919ZM32.937 4.03684C32.8812 4.53474 32.8217 5.05934 32.7615 5.58653C32.7443 5.73575 32.6231 5.85153 32.4792 5.85591C31.0479 5.89919 29.6141 6.40958 28.4244 7.38513H25.5112C27.0581 5.22005 29.6651 3.71677 32.6254 3.69833H32.6276C32.7501 3.69833 32.8266 3.76286 32.8614 3.80153C32.8953 3.83903 32.9501 3.91966 32.937 4.03684Z" fill="#AFAFAF"/>
<path d="M17.6763 29.3935C18.3702 29.3935 18.9347 28.8289 18.9347 28.135V23.1957C18.9347 22.5018 18.3701 21.9372 17.6763 21.9372H12.737C12.043 21.9372 11.4785 22.5018 11.4785 23.1957V28.135C11.4785 28.8289 12.0431 29.3935 12.737 29.3935H17.6763ZM12.6504 28.135V23.1957C12.6504 23.148 12.6893 23.1092 12.737 23.1092H17.6763C17.724 23.1092 17.7629 23.148 17.7629 23.1957V28.135C17.7629 28.1828 17.724 28.2217 17.6763 28.2217H12.737C12.6893 28.2217 12.6504 28.1828 12.6504 28.135Z" fill="#AFAFAF"/>
<path d="M25.1607 33.2132C25.475 33.2132 25.7893 33.0935 26.0286 32.8542L29.3602 29.5226C29.8388 29.044 29.8388 28.2653 29.3602 27.7867L26.0286 24.4551C25.55 23.9765 24.7713 23.9765 24.2926 24.4551L20.9611 27.7867C20.4825 28.2653 20.4825 29.044 20.9611 29.5226L24.2926 32.8542C24.532 33.0935 24.8463 33.2132 25.1607 33.2132ZM21.7897 28.6153L25.1213 25.2837C25.1322 25.2728 25.1463 25.2675 25.1606 25.2675C25.1749 25.2675 25.189 25.2728 25.1999 25.2837L28.5315 28.6153C28.5532 28.637 28.5532 28.6722 28.5315 28.6939L25.1999 32.0255C25.1782 32.0472 25.1429 32.0472 25.1213 32.0255L21.7897 28.6939C21.768 28.6723 21.768 28.637 21.7897 28.6153Z" fill="#AFAFAF"/>
</g>
<defs>
<clipPath id="clip0_302_6717">
<rect width="40" height="40" fill="white"/>
</clipPath>
</defs>
</svg>
