<svg width="40" height="40" viewBox="0 0 40 40" fill="none" xmlns="http://www.w3.org/2000/svg">
<g clip-path="url(#clip0_302_6746)">
<path d="M18.2959 23.7528C17.9715 22.9917 17.0883 22.6362 16.3275 22.9603L13.6748 24.0901C13.306 24.2472 13.0205 24.5384 12.8708 24.9101C12.7212 25.2819 12.7251 25.6897 12.8822 26.0584L14.012 28.7112C14.1691 29.0799 14.4603 29.3654 14.832 29.5151C15.0133 29.5881 15.203 29.6245 15.3926 29.6245C15.5921 29.6245 15.7914 29.5842 15.9803 29.5037L18.6332 28.3739C19.0019 28.2169 19.2874 27.9257 19.4371 27.5539C19.5867 27.1822 19.5828 26.7744 19.4257 26.4056L18.2959 23.7528ZM18.3419 27.1129C18.3101 27.1922 18.2491 27.2542 18.1706 27.2876L15.5177 28.4175C15.439 28.451 15.3521 28.4518 15.273 28.42C15.1939 28.3881 15.1318 28.3272 15.0983 28.2486L13.9685 25.5959C13.9351 25.5172 13.9341 25.4303 13.9661 25.3512C13.998 25.2719 14.0589 25.2099 14.1374 25.1764L16.7903 24.0465C16.831 24.0292 16.8734 24.021 16.9151 24.021C17.0394 24.021 17.158 24.094 17.2097 24.2155L18.3395 26.8682C18.3729 26.9468 18.3738 27.0337 18.3419 27.1129Z" fill="#AFAFAF"/>
<path d="M21.3601 16.9803C21.0767 17.2637 20.9206 17.6404 20.9206 18.0412C20.9206 18.442 21.0767 18.8188 21.3601 19.1021L23.2839 21.026C23.5764 21.3185 23.9606 21.4647 24.3448 21.4647C24.729 21.4647 25.1133 21.3184 25.4057 21.0259L27.3295 19.1021C27.6128 18.8188 27.7689 18.442 27.7689 18.0412C27.7689 17.6404 27.6128 17.2637 27.3295 16.9803L25.4057 15.0564C24.8208 14.4715 23.869 14.4715 23.2838 15.0564L21.3601 16.9803ZM24.3448 15.7978C24.4267 15.7978 24.5086 15.829 24.5709 15.8913L26.4947 17.8151C26.5551 17.8755 26.5883 17.9558 26.5883 18.0412C26.5883 18.1266 26.555 18.2069 26.4947 18.2672H26.4946L24.5709 20.1911C24.4463 20.3157 24.2433 20.3157 24.1188 20.1911L22.1949 18.2672C22.1346 18.2068 22.1013 18.1265 22.1013 18.0411C22.1013 17.9558 22.1346 17.8755 22.195 17.8151L24.1187 15.8913C24.181 15.829 24.263 15.7978 24.3448 15.7978Z" fill="#AFAFAF"/>
<path d="M15.2021 20.3455C15.3088 20.435 15.4433 20.4833 15.5813 20.4833C15.602 20.4833 15.6228 20.4822 15.6437 20.48C15.803 20.4631 15.9487 20.3821 16.0471 20.2556L17.4822 18.4121C17.4823 18.412 17.4823 18.412 17.4823 18.4119L21.7514 12.928C21.7515 12.9278 21.7517 12.9276 21.7519 12.9273L23.1866 11.0843C23.285 10.9579 23.3279 10.7969 23.3052 10.6382C23.2825 10.4796 23.1963 10.337 23.0665 10.2432C21.7183 9.26953 20.0679 8.86181 18.4185 9.09535C16.765 9.32951 15.2893 10.1843 14.2632 11.5024C13.2371 12.8206 12.7704 14.4609 12.9491 16.1213C13.1273 17.7771 13.9275 19.2773 15.2021 20.3455ZM17.0372 13.6618C17.6046 12.9331 18.4582 12.5472 19.3224 12.5472C19.6837 12.5472 20.0469 12.6146 20.3917 12.7526L16.9787 17.1367C16.2381 16.1174 16.2328 14.6952 17.0372 13.6618ZM15.1949 12.2276C16.2268 10.902 17.7598 10.2048 19.3145 10.2048C20.1833 10.2048 21.0587 10.4225 21.8576 10.8697L21.1372 11.795C19.4297 10.9409 17.3098 11.3898 16.1056 12.9365C14.9015 14.4833 14.9864 16.6486 16.2333 18.0944L15.5129 19.0197C13.7568 17.1657 13.5863 14.294 15.1949 12.2276Z" fill="#AFAFAF"/>
<path d="M30.2587 0.651716C29.8575 0.231406 29.3165 0 28.7355 0H11.2644C10.6835 0 10.1425 0.231406 9.74133 0.651716C9.34007 1.07195 9.13393 1.62299 9.16085 2.2034L10.8194 37.9916C10.8717 39.1179 11.7957 40.0001 12.9231 40.0001H27.0769C28.2043 40.0001 29.1283 39.1179 29.1806 37.9916L30.8391 2.2034C30.866 1.62299 30.6598 1.07195 30.2587 0.651716ZM27.0769 38.8194H12.9232C12.4278 38.8194 12.0219 38.4318 11.999 37.9369L11.8999 35.8008H17.8924C18.2185 35.8008 18.4827 35.5365 18.4827 35.2104C18.4827 34.8844 18.2185 34.6201 17.8924 34.6201H11.8452L10.6149 8.07341H12.188C12.5141 8.07341 12.7783 7.8091 12.7783 7.48308C12.7783 7.15707 12.5141 6.89276 12.188 6.89276H10.5602L10.3404 2.14869C10.3286 1.89375 10.4191 1.65164 10.5954 1.46699C10.7716 1.28234 11.0093 1.18064 11.2645 1.18064H28.7356C28.9909 1.18064 29.2285 1.28234 29.4047 1.46699C29.581 1.65164 29.6716 1.89375 29.6598 2.14877L29.4399 6.89284H14.5493C14.2232 6.89284 13.959 7.15715 13.959 7.48316C13.959 7.80918 14.2232 8.07348 14.5493 8.07348H29.3851L28.1548 34.6202H20.2536C19.9275 34.6202 19.6633 34.8845 19.6633 35.2105C19.6633 35.5365 19.9275 35.8008 20.2536 35.8008H28.1L28.001 37.937C27.9782 38.4318 27.5722 38.8194 27.0769 38.8194Z" fill="#AFAFAF"/>
<path d="M24.2337 26.608C23.7309 26.608 23.2543 26.7225 22.8284 26.9262C21.4086 26.07 20.7305 23.2533 20.5849 22.1845C20.5412 21.8616 20.2441 21.6355 19.9211 21.6787C19.598 21.7223 19.3714 22.0196 19.4149 22.3427C19.438 22.5138 19.9456 26.1162 21.8319 27.6633C21.2954 28.2456 20.9669 29.0224 20.9669 29.8748C20.9669 31.6761 22.4323 33.1415 24.2336 33.1415C26.0349 33.1415 27.5004 31.6761 27.5004 29.8748C27.5004 28.0735 26.0349 26.608 24.2337 26.608ZM24.2337 31.9608C23.0835 31.9608 22.1476 31.0251 22.1476 29.8748C22.1476 28.7245 23.0835 27.7887 24.2337 27.7887C25.3839 27.7887 26.3198 28.7245 26.3198 29.8748C26.3198 31.0251 25.3839 31.9608 24.2337 31.9608Z" fill="#AFAFAF"/>
</g>
<defs>
<clipPath id="clip0_302_6746">
<rect width="40" height="40" fill="white"/>
</clipPath>
</defs>
</svg>
