<svg width="64" height="64" viewBox="0 0 64 64" fill="none" xmlns="http://www.w3.org/2000/svg">
<g clip-path="url(#clip0_303_8450)">
<path d="M29.3326 61.2916C13.1597 61.2916 0 48.1324 0 31.9595C0 15.7867 13.1597 2.62695 29.3326 2.62695C34.9564 2.62695 40.4279 4.22944 45.1558 7.26402C46.084 7.86165 46.356 9.09892 45.7583 10.0296C45.1587 10.9602 43.9239 11.2292 42.9933 10.6321C38.9133 8.01057 34.1884 6.62683 29.3326 6.62683C15.3648 6.62683 3.99988 17.9917 3.99988 31.9595C3.99988 45.9269 15.3648 57.2917 29.3326 57.2917C43.2999 57.2917 54.6648 45.9269 54.6648 31.9595C54.6648 31.1246 54.6248 30.298 54.5476 29.485C54.4412 28.3835 55.2463 27.4074 56.3449 27.301C57.4489 27.1994 58.422 27.9997 58.5289 29.0983C58.6193 30.0397 58.6647 30.9942 58.6647 31.9595C58.6647 48.1324 45.5054 61.2916 29.3326 61.2916V61.2916Z" fill="#0C2D68"/>
<path d="M32.6656 38.626C32.1539 38.626 31.6417 38.4312 31.2525 38.0396L19.2529 26.04C18.4717 25.2583 18.4717 23.9917 19.2529 23.2105C20.0341 22.4293 21.3007 22.4293 22.0819 23.2105L32.6685 33.7971L60.5846 5.88047C61.3663 5.09925 62.6329 5.09925 63.4141 5.88047C64.1954 6.6617 64.1954 7.92826 63.4141 8.70949L34.0816 38.0421C33.6895 38.4312 33.1778 38.626 32.6656 38.626V38.626Z" fill="#0C2D68"/>
</g>
<defs>
<clipPath id="clip0_303_8450">
<rect width="64" height="64" fill="white"/>
</clipPath>
</defs>
</svg>
