<svg width="36" height="36" viewBox="0 0 36 36" fill="none" xmlns="http://www.w3.org/2000/svg">
<mask id="mask0_303_8976" style="mask-type:alpha" maskUnits="userSpaceOnUse" x="9" y="20" width="18" height="9">
<path fill-rule="evenodd" clip-rule="evenodd" d="M9.52954 20.6429H26.3012V28.4507H9.52954V20.6429Z" fill="white"/>
</mask>
<g mask="url(#mask0_303_8976)">
<path fill-rule="evenodd" clip-rule="evenodd" d="M17.9164 22.2312C13.4047 22.2312 11.1177 23.0062 11.1177 24.5362C11.1177 26.08 13.4047 26.8624 17.9164 26.8624C22.427 26.8624 24.713 26.0874 24.713 24.5574C24.713 23.0136 22.427 22.2312 17.9164 22.2312M17.9164 28.4507C15.8421 28.4507 9.52942 28.4507 9.52942 24.5362C9.52942 21.0463 14.3164 20.6429 17.9164 20.6429C19.9906 20.6429 26.3012 20.6429 26.3012 24.5574C26.3012 28.0473 21.5153 28.4507 17.9164 28.4507" fill="#FAFAFA"/>
</g>
<mask id="mask1_303_8976" style="mask-type:alpha" maskUnits="userSpaceOnUse" x="12" y="7" width="12" height="12">
<path fill-rule="evenodd" clip-rule="evenodd" d="M12.293 7.41187H23.5377V18.6551H12.293V7.41187Z" fill="white"/>
</mask>
<g mask="url(#mask1_303_8976)">
<path fill-rule="evenodd" clip-rule="evenodd" d="M17.9164 8.92344C15.6495 8.92344 13.805 10.7668 13.805 13.0338C13.7976 15.2933 15.6283 17.1357 17.8857 17.1441L17.9164 17.9001V17.1441C20.1823 17.1441 22.0257 15.2997 22.0257 13.0338C22.0257 10.7668 20.1823 8.92344 17.9164 8.92344M17.9164 18.6551H17.8825C14.7886 18.6456 12.2824 16.1224 12.293 13.0306C12.293 9.93356 14.8151 7.41144 17.9164 7.41144C21.0166 7.41144 23.5377 9.93356 23.5377 13.0338C23.5377 16.134 21.0166 18.6551 17.9164 18.6551" fill="#FAFAFA"/>
</g>
<circle cx="18" cy="18" r="17.35" stroke="#FAFAFA" stroke-width="1.3"/>
</svg>
